<svg width="219" height="80" viewBox="0 0 219 80" fill="none" xmlns="http://www.w3.org/2000/svg">
<path d="M164.656 25.7793H162.72V34.1487H164.656V25.7793Z" fill="#FF00C5"/>
<path d="M166.718 31.9278C166.718 32.677 166.925 33.2451 167.337 33.6588C167.75 34.0462 168.344 34.253 169.118 34.253C169.4 34.253 169.684 34.2274 169.968 34.1499C170.227 34.0724 170.458 33.9693 170.639 33.8399L170.149 32.5226C169.943 32.6776 169.684 32.7551 169.401 32.7551C169.144 32.7551 168.963 32.6776 168.809 32.5226C168.679 32.3677 168.601 32.1608 168.601 31.9027V29.2937H170.2V27.8733H168.601V26.2973H166.746V27.8733H165.764V29.2937H166.746V31.9284H166.718L166.718 31.9278Z" fill="#FF00C5"/>
<path d="M171.877 27.3559L171.362 29.2413H172.549L173.245 27.5103C173.374 27.2004 173.45 26.9423 173.503 26.7873C173.554 26.6323 173.554 26.4773 173.554 26.2961C173.554 25.9605 173.451 25.6762 173.219 25.4694C173.014 25.2625 172.729 25.1594 172.394 25.1594C172.059 25.1594 171.775 25.2625 171.567 25.4694C171.361 25.6762 171.232 25.9605 171.232 26.2961C171.232 26.5542 171.285 26.7611 171.412 26.9417C171.516 27.1229 171.671 27.2516 171.877 27.3291V27.3559Z" fill="#FF00C5"/>
<path d="M176.83 32.8058C176.444 32.8058 176.031 32.7539 175.645 32.6246C175.259 32.4952 174.896 32.3665 174.612 32.1853L173.995 33.5288C174.303 33.7356 174.691 33.8906 175.206 34.0194C175.721 34.1487 176.239 34.2006 176.779 34.2006C177.398 34.2006 177.941 34.1231 178.404 33.9425C178.869 33.7618 179.203 33.5294 179.436 33.2194C179.667 32.9095 179.797 32.5477 179.797 32.1602C179.797 31.6953 179.667 31.3335 179.436 31.0491C179.203 30.7648 178.895 30.6098 178.558 30.5067C178.223 30.4036 177.786 30.3261 177.269 30.2224C176.804 30.1449 176.47 30.0674 176.239 29.9899C176.031 29.9124 175.903 29.7831 175.903 29.5769C175.903 29.3957 176.005 29.2669 176.213 29.1376C176.419 29.0344 176.703 28.9826 177.114 28.9826C177.786 28.9826 178.403 29.1376 178.972 29.4731L179.59 28.1558C179.306 27.9746 178.92 27.8459 178.481 27.7428C178.042 27.6396 177.578 27.5878 177.114 27.5878C176.495 27.5878 175.979 27.6653 175.515 27.8459C175.05 28.0265 174.715 28.259 174.484 28.5689C174.251 28.8789 174.122 29.2407 174.122 29.6538C174.122 30.1443 174.251 30.5061 174.51 30.7642C174.767 31.0223 175.051 31.2035 175.386 31.3067C175.722 31.4098 176.16 31.5135 176.677 31.591C177.114 31.6428 177.449 31.7203 177.657 31.7978C177.863 31.8753 177.992 32.0046 177.992 32.1853C177.992 32.5727 177.604 32.7795 176.805 32.7795L176.831 32.8052L176.83 32.8058Z" fill="#FF00C5"/>
<path d="M184.541 34.1231H186.398V29.2669H187.997V27.8465H186.347V27.5622C186.347 26.9423 186.631 26.6323 187.197 26.6323C187.482 26.6323 187.74 26.7098 187.946 26.8648L188.435 25.5213C188.28 25.4181 188.049 25.3144 187.816 25.2631C187.585 25.2113 187.301 25.1857 187.017 25.1857C186.218 25.1857 185.624 25.3925 185.185 25.8312C184.748 26.2705 184.541 26.8386 184.541 27.5878V27.8721H183.561V29.2932H184.541V34.1493V34.1231Z" fill="#FF00C5"/>
<path d="M190.141 29.2669C190.476 29.1638 190.811 29.1119 191.146 29.1119C191.636 29.1119 191.997 29.2151 192.255 29.4475C192.514 29.6544 192.616 29.9899 192.616 30.3774H191.146C190.218 30.3774 189.522 30.558 189.057 30.8942C188.618 31.2298 188.385 31.6953 188.385 32.3152C188.385 32.7026 188.489 33.0126 188.669 33.3225C188.85 33.6069 189.134 33.8393 189.494 34.0199C189.857 34.2006 190.296 34.2781 190.785 34.2781C191.74 34.2781 192.384 33.9681 192.745 33.3738V34.1749H194.473V30.5067C194.473 29.5512 194.215 28.8276 193.674 28.3627C193.131 27.8977 192.385 27.6653 191.377 27.6653C190.862 27.6653 190.347 27.7428 189.857 27.8721C189.367 28.0015 188.954 28.2077 188.593 28.4402L189.263 29.7318C189.494 29.5512 189.778 29.3963 190.113 29.2925L190.141 29.2669ZM192.616 32.1084C192.514 32.3927 192.332 32.5989 192.101 32.7539C191.842 32.9089 191.585 32.9864 191.25 32.9864C190.914 32.9864 190.656 32.9089 190.476 32.7795C190.296 32.6502 190.192 32.444 190.192 32.2115C190.192 31.7209 190.578 31.4622 191.327 31.4622H192.591V32.1078H192.616L192.616 32.1084Z" fill="#FF00C5"/>
<path d="M200.12 30.5329C199.785 30.4298 199.346 30.3523 198.831 30.2486C198.367 30.1711 198.032 30.0936 197.801 30.0162C197.593 29.9387 197.464 29.8093 197.464 29.6031C197.464 29.4225 197.568 29.2931 197.774 29.1638C197.981 29.0606 198.264 29.0088 198.677 29.0088C199.347 29.0088 199.967 29.1638 200.534 29.4999L201.153 28.1826C200.869 28.002 200.483 27.8727 200.044 27.7696C199.605 27.6664 199.141 27.6146 198.676 27.6146C198.057 27.6146 197.542 27.6921 197.078 27.8727C196.639 28.0533 196.278 28.2858 196.045 28.5957C195.814 28.9057 195.685 29.2675 195.685 29.6806C195.685 30.1717 195.814 30.5329 196.073 30.7916C196.329 31.0497 196.613 31.2309 196.949 31.334C197.284 31.4372 197.723 31.5409 198.238 31.6184C198.677 31.6702 199.012 31.7477 199.218 31.8252C199.425 31.9027 199.554 32.032 199.554 32.2126C199.554 32.6001 199.167 32.8069 198.367 32.8069C197.981 32.8069 197.568 32.7551 197.182 32.6263C196.768 32.5232 196.434 32.3682 196.149 32.187L195.53 33.53C195.84 33.7368 196.228 33.8918 196.743 34.0211C197.259 34.1504 197.774 34.2017 198.317 34.2017C198.935 34.2017 199.476 34.1242 199.941 33.9436C200.406 33.7624 200.74 33.5305 200.973 33.22C201.204 32.91 201.334 32.5482 201.334 32.1608C201.334 31.6959 201.204 31.334 200.973 31.0503C200.74 30.766 200.431 30.611 200.095 30.5079L200.121 30.5335L200.12 30.5329Z" fill="#FF00C5"/>
<path d="M206.13 32.522C205.924 32.677 205.666 32.7545 205.382 32.7545C205.125 32.7545 204.945 32.677 204.79 32.522C204.661 32.367 204.583 32.1602 204.583 31.9021V29.2931H206.181V27.8727H204.583V26.2967H202.725V27.8727H201.745V29.2931H202.725V31.9277C202.725 32.677 202.933 33.2451 203.344 33.6587C203.758 34.0462 204.351 34.253 205.125 34.253C205.408 34.253 205.692 34.2274 205.976 34.1499C206.234 34.0724 206.466 33.9693 206.646 33.8399L206.156 32.5226H206.131L206.13 32.522Z" fill="#FF00C5"/>
<path d="M212.141 28.0014C211.626 27.7171 211.083 27.5884 210.439 27.5884C209.794 27.5884 209.2 27.7177 208.685 28.0014C208.17 28.2858 207.756 28.6732 207.447 29.1894C207.162 29.7062 207.008 30.2486 207.008 30.8942C207.008 31.5397 207.162 32.1083 207.472 32.5989C207.782 33.0901 208.195 33.5031 208.761 33.7869C209.33 34.0712 209.948 34.2005 210.67 34.2005C211.831 34.2005 212.708 33.865 213.327 33.167L212.347 32.0821C212.116 32.289 211.882 32.4439 211.624 32.5471C211.367 32.6502 211.083 32.702 210.747 32.702C210.258 32.702 209.844 32.5989 209.535 32.3664C209.199 32.134 208.994 31.824 208.916 31.4104H213.765C213.765 31.1004 213.791 30.9198 213.791 30.8936C213.791 30.2218 213.636 29.6281 213.352 29.137C213.069 28.6202 212.656 28.2327 212.141 27.9746V28.0003L212.141 28.0014ZM208.866 30.3517C208.917 29.9387 209.097 29.6025 209.381 29.37C209.665 29.1375 210.025 29.0082 210.439 29.0082C210.852 29.0082 211.213 29.1375 211.497 29.37C211.779 29.6025 211.961 29.9381 212.012 30.3517H208.839H208.866Z" fill="#FF00C5"/>
<path d="M217.685 27.8465C217.297 28.0014 217.013 28.2339 216.782 28.5439V27.6915H215.002V34.1236H216.858V31.1016C216.858 30.5073 217.013 30.0686 217.323 29.7586C217.632 29.4487 218.046 29.3193 218.587 29.3193H219V27.5884C218.51 27.5884 218.071 27.6658 217.685 27.8208V27.8465H217.685Z" fill="#FF00C5"/>
<path d="M100.842 38.307H120.523L121.838 34.3551H102.159L100.842 38.307Z" fill="#2E0054"/>
<path d="M102.158 46.187H117.892L119.207 42.2351H99.526L98.2113 46.187L96.8966 50.1133L95.5802 54.0652H115.286L116.576 50.1133H100.843L102.158 46.187Z" fill="#2E0054"/>
<path d="M138.884 42.2351H123.152L121.837 46.187H137.57L136.281 50.1133H120.52L119.206 54.0653L116.574 61.9441H120.52L123.152 54.0653H138.885L142.831 42.2345H138.885L138.884 42.2351Z" fill="#2E0054"/>
<path d="M170.38 42.2351L167.776 50.1139H155.962L158.568 42.2351H154.647L150.701 54.0658H170.38L174.326 42.2351H170.38Z" fill="#2E0054"/>
<path d="M178.271 42.2351L176.956 46.187L174.325 54.0658H190.059L188.743 58.0178H173.01L171.695 61.9697H191.374L197.952 42.2351H178.271ZM191.374 50.1133H179.56L180.877 46.1608H192.689L191.374 50.1133Z" fill="#2E0054"/>
<path d="M153.329 34.3551H149.383L146.339 43.5512L142.832 54.0647H146.778L150.699 42.2339L153.329 34.3551Z" fill="#2E0054"/>
<path d="M51.6961 69.1949L63.5587 42.4956H44.4071L44.587 42.1815C47.6921 36.7602 49.3631 30.9957 49.2915 25.9502C49.256 23.449 48.8047 21.1756 47.9494 19.193C47.0708 17.1567 45.7841 15.4741 44.1253 14.1917C43.231 13.4908 42.1823 12.9193 41.008 12.4922L40.5573 12.3285L43.6933 10.714C49.2892 7.76947 55.0772 4.72351 62.8233 4.72351C68.8652 4.72351 73.646 6.54246 78.2696 8.30198C82.2323 9.8069 86.3301 11.3631 90.6998 11.3631C93.8963 11.3631 97.0049 10.5428 100.202 8.85489L100.345 8.77915L103.989 12.787L100.072 17.0402L99.9359 16.9831C97.5848 15.9938 95.0352 15.4921 92.3575 15.4921C81.6774 15.4921 70.2679 23.3634 63.2891 35.5443L63.1523 35.7832L63.1273 35.7581L61.7654 38.1498H80.4501L52.0432 69.4209L51.6967 69.1949H51.6961Z" fill="#FF00C5"/>
<path d="M71.1295 14.1042C69.5814 14.1042 68.3179 14.9053 68.3179 15.8864C68.3179 16.8675 69.5819 17.6687 71.1295 17.6687C72.6771 17.6687 73.9412 16.8681 73.9412 15.8864C73.9412 14.9047 72.6771 14.1042 71.1295 14.1042Z" fill="#2E0054"/>
<path d="M71.1295 12.425C72.6824 12.425 73.9412 11.6268 73.9412 10.6428C73.9412 9.65875 72.6824 8.86055 71.1295 8.86055C69.5767 8.86055 68.3179 9.65875 68.3179 10.6428C68.3179 11.6268 69.5767 12.425 71.1295 12.425Z" fill="#2E0054"/>
<path d="M57.9499 14.1042C56.4018 14.1042 55.1383 14.9053 55.1383 15.8864C55.1383 16.8675 56.4023 17.6687 57.9499 17.6687C59.4975 17.6687 60.7598 16.8681 60.7598 15.8864C60.7598 14.9047 59.4958 14.1042 57.9499 14.1042Z" fill="#2E0054"/>
<path d="M57.9499 8.85998C56.4018 8.85998 55.1383 9.66109 55.1383 10.6422C55.1383 11.6234 56.4023 12.4245 57.9499 12.4245C59.4975 12.4245 60.7598 11.6234 60.7598 10.6422C60.7598 9.66109 59.4958 8.85998 57.9499 8.85998Z" fill="#2E0054"/>
<path d="M78.2992 11.3921C76.7528 11.3921 75.4893 12.1926 75.4893 13.1743C75.4893 14.156 76.7534 14.9565 78.2992 14.9565C79.8451 14.9565 81.1109 14.1554 81.1109 13.1743C81.1109 12.1932 79.8468 11.3921 78.2992 11.3921Z" fill="#2E0054"/>
<path d="M51.2682 11.3921C49.72 11.3921 48.4565 12.1926 48.4565 13.1743C48.4565 14.156 49.7206 14.9565 51.2682 14.9565C52.8157 14.9565 54.0798 14.1554 54.0798 13.1743C54.0798 12.1932 52.8157 11.3921 51.2682 11.3921Z" fill="#2E0054"/>
<path d="M64.7849 11.3921C63.2367 11.3921 61.9732 12.1926 61.9732 13.1743C61.9732 14.156 63.2373 14.9565 64.7849 14.9565C66.3325 14.9565 67.5965 14.1554 67.5965 13.1743C67.5965 12.1932 66.3325 11.3921 64.7849 11.3921Z" fill="#2E0054"/>
<path d="M99.5789 20.8975L100.894 21.5949L109.071 12.7606L97.0765 0C97.0765 0 94.8581 3.02207 97.5411 6.0185C90.9379 9.11806 85.8823 7.20647 79.5633 4.80431C74.843 3.02207 69.5033 0.981138 62.8239 0.981138C54.2352 0.981138 47.993 4.23567 41.9575 7.38708C36.6708 10.151 31.6664 12.76 25.5273 12.76C12.2953 12.7606 5.79577 5.11427 3.60306 1.8341C3.00975 0.929867 1.77191 0.6974 0.868856 1.29168C-0.0336164 1.88537 -0.26593 3.12577 0.327373 4.02942C5.6147 11.9595 15.0295 16.7125 25.5273 16.7125C27.8999 16.7125 30.0927 16.377 32.1817 15.8345H32.2336C34.9421 15.1371 38.8362 14.801 41.8533 17.1262C47.5808 21.5437 46.5992 32.9607 39.5843 43.1124L37.4429 46.1863H57.8189L44.2533 76.7193C43.7887 77.7785 44.1497 78.9921 45.104 79.6126C45.49 79.8707 45.929 80 46.368 80C47.0126 80 47.6321 79.7419 48.0961 79.2251L88.8232 34.3818H68.2923C76.7767 21.8536 90.0092 15.9382 99.526 20.8719L99.5789 20.8975ZM63.0818 35.4148L61.4044 38.3593H79.9761L51.8876 69.2797L63.8812 42.2862H44.7686C51.1901 31.0754 51.1389 19.3478 44.2533 14.0267C43.2973 13.2774 42.2155 12.7093 41.0795 12.2957C41.9826 11.8307 42.8862 11.3658 43.7893 10.9009C49.3858 7.9563 55.1895 4.93365 62.8233 4.93365C68.7819 4.93365 73.579 6.74153 78.195 8.49814C85.1336 11.1328 91.6855 13.5868 100.3 9.04057L103.705 12.7863L100.017 16.79C88.0489 11.7527 72.1345 19.6833 63.1074 35.4404L63.0818 35.4148Z" fill="#2E0054"/>
</svg>
