<svg width="32" height="32" viewBox="0 0 32 32" fill="none" xmlns="http://www.w3.org/2000/svg">
<g>
<path d="M21.3334 8.00004H25.3334C25.687 8.00004 26.0261 8.14052 26.2762 8.39057C26.5262 8.64061 26.6667 8.97975 26.6667 9.33337V24C26.6667 24.7073 26.3858 25.3856 25.8857 25.8857C25.3856 26.3858 24.7073 26.6667 24 26.6667M24 26.6667C23.2928 26.6667 22.6145 26.3858 22.1144 25.8857C21.6143 25.3856 21.3334 24.7073 21.3334 24V6.66671C21.3334 6.31309 21.1929 5.97395 20.9428 5.7239C20.6928 5.47385 20.3537 5.33337 20 5.33337H6.66671C6.31309 5.33337 5.97395 5.47385 5.7239 5.7239C5.47385 5.97395 5.33337 6.31309 5.33337 6.66671V22.6667C5.33337 23.7276 5.7548 24.745 6.50495 25.4951C7.25509 26.2453 8.27251 26.6667 9.33337 26.6667H24ZM10.6667 10.6667H16M10.6667 16H16M10.6667 21.3334H16" stroke="currentColor" stroke-width="2" stroke-linecap="round" stroke-linejoin="round"/>
</g>
</svg>
