<svg width="32" height="32" viewBox="0 0 32 32" fill="none" xmlns="http://www.w3.org/2000/svg">
<g>
<path d="M16 1.33343C16.2172 1.33507 16.4307 1.38973 16.6219 1.49267C16.8131 1.59561 16.9763 1.74371 17.0973 1.9241L17.1866 2.07876L20.9893 9.78676L29.496 11.0201C30.484 11.1641 30.936 12.2734 30.4333 13.0548L30.34 13.1814L30.236 13.2961L24.0706 19.2948L25.524 27.7681C25.5622 27.9892 25.544 28.2164 25.4711 28.4286C25.3982 28.6408 25.2729 28.8311 25.1068 28.982C24.9408 29.1329 24.7393 29.2395 24.5211 29.2918C24.3029 29.3442 24.0751 29.3406 23.8586 29.2814L23.724 29.2348L23.5893 29.1734L15.9986 25.1734L8.39064 29.1734C8.2502 29.2463 8.10797 29.2934 7.96397 29.3148L7.82264 29.3281C7.63655 29.3349 7.45109 29.3028 7.27814 29.2338C7.10518 29.1647 6.94855 29.0604 6.81826 28.9273C6.68797 28.7943 6.58691 28.6355 6.52154 28.4611C6.45617 28.2868 6.42793 28.1007 6.43864 27.9148L6.45597 27.7681L7.90931 19.2948L1.74531 13.2948C1.58558 13.1397 1.46724 12.947 1.40107 12.7345C1.3349 12.5219 1.32302 12.2961 1.3665 12.0778C1.40998 11.8594 1.50745 11.6554 1.65001 11.4844C1.79257 11.3134 1.97568 11.1808 2.18264 11.0988L2.33331 11.0508L2.48531 11.0201L10.9906 9.78676L14.7946 2.0801C14.901 1.85179 15.0717 1.65951 15.2859 1.52687C15.5 1.39423 15.7482 1.327 16 1.33343ZM16 5.69876V22.3334C16.1074 22.3334 16.2144 22.3464 16.3186 22.3721L16.472 22.4201L16.6213 22.4868L22.4386 25.5521L21.324 19.0548C21.269 18.7337 21.3335 18.4036 21.5053 18.1268L21.5986 17.9948L21.708 17.8748L26.436 13.2708L19.9146 12.3268C19.5923 12.28 19.2983 12.1168 19.088 11.8681L18.9906 11.7388L18.9106 11.5974L16 5.69876Z" fill="currentColor"/>
</g>
</svg>
