<svg width="32" height="32" viewBox="0 0 32 32" fill="none" xmlns="http://www.w3.org/2000/svg">
<g>
<path d="M9.33329 22L2.66663 18L9.33329 14L16 18V25.3333L9.33329 29.3333V22Z" stroke="currentColor" stroke-width="2" stroke-linecap="round" stroke-linejoin="round"/>
<path d="M2.66663 18V25.3333L9.33329 29.3333M9.33329 22.06L16 18.02M22.6666 22L16 18M22.6666 22V29.3333M22.6666 22L29.3333 18M16 18L22.6666 14M16 18V10.6666M22.6666 14L29.3333 18M22.6666 14V6.66663M29.3333 18V25.3333L22.6666 29.3333M22.6666 29.3333L16 25.3333M16 10.6666L9.33329 6.66663L16 2.66663L22.6666 6.66663M16 10.6666L22.6666 6.66663M9.33329 6.70663V13.98" stroke="currentColor" stroke-width="2" stroke-linecap="round" stroke-linejoin="round"/>
</g>
</svg>
