<svg width="32" height="32" viewBox="0 0 32 32" fill="none" xmlns="http://www.w3.org/2000/svg">
<g opacity="0.4">
<path d="M8.66663 10.0001C8.66663 10.3537 8.8071 10.6928 9.05715 10.9429C9.3072 11.1929 9.64634 11.3334 9.99996 11.3334C10.3536 11.3334 10.6927 11.1929 10.9428 10.9429C11.1928 10.6928 11.3333 10.3537 11.3333 10.0001C11.3333 9.64646 11.1928 9.30732 10.9428 9.05727C10.6927 8.80722 10.3536 8.66675 9.99996 8.66675C9.64634 8.66675 9.3072 8.80722 9.05715 9.05727C8.8071 9.30732 8.66663 9.64646 8.66663 10.0001Z" stroke="white" stroke-width="2" stroke-linecap="round" stroke-linejoin="round"/>
<path d="M4 8V14.896C4.00015 15.6032 4.2812 16.2814 4.78133 16.7813L15.0613 27.0613C15.6639 27.6638 16.4812 28.0023 17.3333 28.0023C18.1855 28.0023 19.0027 27.6638 19.6053 27.0613L27.0613 19.6053C27.6638 19.0027 28.0023 18.1855 28.0023 17.3333C28.0023 16.4812 27.6638 15.6639 27.0613 15.0613L16.7813 4.78133C16.2814 4.2812 15.6032 4.00015 14.896 4H8C6.93913 4 5.92172 4.42143 5.17157 5.17157C4.42143 5.92172 4 6.93913 4 8Z" stroke="white" stroke-width="2" stroke-linecap="round" stroke-linejoin="round"/>
</g>
</svg>
