<svg width="32" height="32" viewBox="0 0 32 32" fill="none" xmlns="http://www.w3.org/2000/svg">
<g>
<path d="M5.33337 5.33337H13.3334V13.3334H5.33337V5.33337ZM18.6667 5.33337H26.6667V13.3334H18.6667V5.33337ZM5.33337 18.6667H13.3334V26.6667H5.33337V18.6667ZM18.6667 22.6667C18.6667 23.7276 19.0881 24.745 19.8383 25.4951C20.5884 26.2453 21.6058 26.6667 22.6667 26.6667C23.7276 26.6667 24.745 26.2453 25.4951 25.4951C26.2453 24.745 26.6667 23.7276 26.6667 22.6667C26.6667 21.6058 26.2453 20.5884 25.4951 19.8383C24.745 19.0881 23.7276 18.6667 22.6667 18.6667C21.6058 18.6667 20.5884 19.0881 19.8383 19.8383C19.0881 20.5884 18.6667 21.6058 18.6667 22.6667Z" stroke="currentColor" stroke-width="2" stroke-linecap="round" stroke-linejoin="round"/>
</g>
</svg>
