<svg width="32" height="32" viewBox="0 0 32 32" fill="none" xmlns="http://www.w3.org/2000/svg">
<path d="M9.33341 22L2.66675 18L9.33341 14L16.0001 18V25.3333L9.33341 29.3333V22Z" stroke="currentColor" stroke-width="2" stroke-linecap="round" stroke-linejoin="round"/>
<path d="M2.66675 18.0001V25.3334L9.33341 29.3334M9.33341 22.0601L16.0001 18.0201M22.6667 22.0001L16.0001 18.0001M22.6667 22.0001V29.3334M22.6667 22.0001L29.3334 18.0001M16.0001 18.0001L22.6667 14.0001M16.0001 18.0001V10.6667M22.6667 14.0001L29.3334 18.0001M22.6667 14.0001V6.66675M29.3334 18.0001V25.3334L22.6667 29.3334M22.6667 29.3334L16.0001 25.3334M16.0001 10.6667L9.33341 6.66675L16.0001 2.66675L22.6667 6.66675M16.0001 10.6667L22.6667 6.66675M9.33341 6.70675V13.9801" stroke="currentColor" stroke-width="2" stroke-linecap="round" stroke-linejoin="round"/>
</svg>
