<svg width="32" height="32" viewBox="0 0 32 32" fill="none" xmlns="http://www.w3.org/2000/svg">
<g>
<path d="M6.66663 28V6.66667C6.66663 5.95942 6.94758 5.28115 7.44767 4.78105C7.94777 4.28095 8.62605 4 9.33329 4H22.6666C23.3739 4 24.0521 4.28095 24.5522 4.78105C25.0523 5.28115 25.3333 5.95942 25.3333 6.66667V28L21.3333 25.3333L18.6666 28L16 25.3333L13.3333 28L10.6666 25.3333L6.66663 28Z" stroke="currentColor" stroke-width="2" stroke-linecap="round" stroke-linejoin="round"/>
<path d="M19.7333 10.6667C19.4918 10.2477 19.1409 9.90227 18.7181 9.6674C18.2954 9.43254 17.8167 9.31706 17.3333 9.33333H14.6667C13.9594 9.33333 13.2811 9.61428 12.781 10.1144C12.281 10.6145 12 11.2928 12 12C12 12.7072 12.281 13.3855 12.781 13.8856C13.2811 14.3857 13.9594 14.6667 14.6667 14.6667H17.3333C18.0406 14.6667 18.7189 14.9476 19.219 15.4477C19.719 15.9478 20 16.6261 20 17.3333C20 18.0406 19.719 18.7189 19.219 19.219C18.7189 19.719 18.0406 20 17.3333 20H14.6667C14.1833 20.0163 13.7046 19.9008 13.2819 19.6659C12.8591 19.4311 12.5082 19.0857 12.2667 18.6667M16 8V21.3333" stroke="currentColor" stroke-width="2" stroke-linecap="round" stroke-linejoin="round"/>
</g>
</svg>
