<svg width="18" height="18" viewBox="0 0 18 18" fill="none" xmlns="http://www.w3.org/2000/svg">
<path d="M16.9087 10.2541C16.7158 11.7247 16.1263 13.115 15.2034 14.2759C14.2804 15.4369 13.0589 16.3247 11.6697 16.8442C10.2805 17.3637 8.77614 17.4952 7.3179 17.2246C5.85966 16.9541 4.50257 16.2917 3.39217 15.3085C2.28177 14.3253 1.45995 13.0584 1.01486 11.6437C0.569762 10.2289 0.518178 8.71968 0.865638 7.27783C1.2131 5.83599 1.94649 4.51592 2.98717 3.4592C4.02785 2.40249 5.33655 1.64899 6.77291 1.27953C10.7547 0.258293 14.8764 2.30791 16.398 6.12733" stroke="currentColor" stroke-width="1.25" stroke-linecap="round" stroke-linejoin="round"/>
<path d="M16.977 1.02123V6.1274H11.8708" stroke="currentColor" stroke-width="2" stroke-linecap="round" stroke-linejoin="round"/>
</svg>
