<svg width="32" height="32" viewBox="0 0 32 32" fill="none" xmlns="http://www.w3.org/2000/svg">
<g>
<path d="M4 9.33341C4 8.62617 4.28095 7.94789 4.78105 7.4478C5.28115 6.9477 5.95942 6.66675 6.66667 6.66675H25.3333C26.0406 6.66675 26.7189 6.9477 27.219 7.4478C27.719 7.94789 28 8.62617 28 9.33341V22.6667C28 23.374 27.719 24.0523 27.219 24.5524C26.7189 25.0525 26.0406 25.3334 25.3333 25.3334H6.66667C5.95942 25.3334 5.28115 25.0525 4.78105 24.5524C4.28095 24.0523 4 23.374 4 22.6667V9.33341Z" stroke="currentColor" stroke-width="2" stroke-linecap="round" stroke-linejoin="round"/>
<path d="M9.33331 20V14.6667C9.33331 13.9594 9.61426 13.2811 10.1144 12.781C10.6145 12.281 11.2927 12 12 12C12.7072 12 13.3855 12.281 13.8856 12.781C14.3857 13.2811 14.6666 13.9594 14.6666 14.6667V20M9.33331 17.3333H14.6666M22.6666 12V20H20.6666C20.2711 20 19.8844 19.8827 19.5555 19.6629C19.2266 19.4432 18.9703 19.1308 18.8189 18.7654C18.6675 18.3999 18.6279 17.9978 18.7051 17.6098C18.7822 17.2219 18.9727 16.8655 19.2524 16.5858C19.5321 16.3061 19.8885 16.1156 20.2765 16.0384C20.6644 15.9613 21.0666 16.0009 21.432 16.1522C21.7975 16.3036 22.1098 16.56 22.3296 16.8889C22.5493 17.2178 22.6666 17.6044 22.6666 18" stroke="currentColor" stroke-width="2" stroke-linecap="round" stroke-linejoin="round"/>
</g>
</svg>
