<svg width="32" height="32" viewBox="0 0 32 32" fill="none" xmlns="http://www.w3.org/2000/svg">
<g>
<path d="M13.3334 15.9999C13.3334 16.7072 13.6143 17.3854 14.1144 17.8855C14.6145 18.3856 15.2928 18.6666 16 18.6666C16.7073 18.6666 17.3856 18.3856 17.8857 17.8855C18.3858 17.3854 18.6667 16.7072 18.6667 15.9999C18.6667 15.2927 18.3858 14.6144 17.8857 14.1143C17.3856 13.6142 16.7073 13.3333 16 13.3333C15.2928 13.3333 14.6145 13.6142 14.1144 14.1143C13.6143 14.6144 13.3334 15.2927 13.3334 15.9999Z" stroke="currentColor" stroke-width="2" stroke-linecap="round" stroke-linejoin="round"/>
<path d="M28 16C24.8 21.3333 20.8 24 16 24C11.2 24 7.2 21.3333 4 16C7.2 10.6667 11.2 8 16 8C20.8 8 24.8 10.6667 28 16Z" stroke="currentColor" stroke-width="2" stroke-linecap="round" stroke-linejoin="round"/>
</g>
</svg>
