<svg width="32" height="32" viewBox="0 0 32 32" fill="none" xmlns="http://www.w3.org/2000/svg">
<g>
<path d="M8.66669 9.99996C8.66669 10.3536 8.80716 10.6927 9.05721 10.9428C9.30726 11.1928 9.6464 11.3333 10 11.3333C10.3536 11.3333 10.6928 11.1928 10.9428 10.9428C11.1929 10.6927 11.3334 10.3536 11.3334 9.99996C11.3334 9.64634 11.1929 9.3072 10.9428 9.05715C10.6928 8.8071 10.3536 8.66663 10 8.66663C9.6464 8.66663 9.30726 8.8071 9.05721 9.05715C8.80716 9.3072 8.66669 9.64634 8.66669 9.99996Z" stroke="currentColor" stroke-width="2" stroke-linecap="round" stroke-linejoin="round"/>
<path d="M4 8V14.896C4.00015 15.6032 4.2812 16.2814 4.78133 16.7813L15.0613 27.0613C15.6639 27.6638 16.4812 28.0023 17.3333 28.0023C18.1855 28.0023 19.0027 27.6638 19.6053 27.0613L27.0613 19.6053C27.6638 19.0027 28.0023 18.1855 28.0023 17.3333C28.0023 16.4812 27.6638 15.6639 27.0613 15.0613L16.7813 4.78133C16.2814 4.2812 15.6032 4.00015 14.896 4H8C6.93913 4 5.92172 4.42143 5.17157 5.17157C4.42143 5.92172 4 6.93913 4 8Z" stroke="currentColor" stroke-width="2" stroke-linecap="round" stroke-linejoin="round"/>
</g>
</svg>
