<svg width="189" height="131" viewBox="0 0 189 131" fill="none" xmlns="http://www.w3.org/2000/svg">
<g clip-path="url(#clip0_277_1273)">
<rect x="0.5" y="0.5" width="187.25" height="130" rx="12" fill="#111539"/>
<g opacity="0.4">
<path d="M86.7916 43.5001C86.7916 43.8537 86.9321 44.1928 87.1822 44.4429C87.4322 44.6929 87.7713 44.8334 88.125 44.8334C88.4786 44.8334 88.8177 44.6929 89.0678 44.4429C89.3178 44.1928 89.4583 43.8537 89.4583 43.5001C89.4583 43.1465 89.3178 42.8073 89.0678 42.5573C88.8177 42.3072 88.4786 42.1667 88.125 42.1667C87.7713 42.1667 87.4322 42.3072 87.1822 42.5573C86.9321 42.8073 86.7916 43.1465 86.7916 43.5001Z" stroke="white" stroke-width="2" stroke-linecap="round" stroke-linejoin="round"/>
<path d="M82.125 41.5V48.396C82.1252 49.1032 82.4062 49.7814 82.9063 50.2813L93.1863 60.5613C93.7889 61.1638 94.6062 61.5023 95.4583 61.5023C96.3105 61.5023 97.1277 61.1638 97.7303 60.5613L105.186 53.1053C105.789 52.5027 106.127 51.6855 106.127 50.8333C106.127 49.9812 105.789 49.1639 105.186 48.5613L94.9063 38.2813C94.4064 37.7812 93.7282 37.5002 93.021 37.5H86.125C85.0641 37.5 84.0467 37.9214 83.2966 38.6716C82.5464 39.4217 82.125 40.4391 82.125 41.5Z" stroke="white" stroke-width="2" stroke-linecap="round" stroke-linejoin="round"/>
</g>
<path opacity="0.7" d="M72.1568 92.5V82.3182H75.7164C76.4257 82.3182 77.0107 82.4408 77.4714 82.6861C77.9321 82.928 78.2752 83.2545 78.5005 83.6655C78.7259 84.0732 78.8386 84.5256 78.8386 85.0227C78.8386 85.4602 78.7607 85.8215 78.6049 86.1065C78.4525 86.3916 78.2503 86.617 77.9984 86.7827C77.7498 86.9484 77.4797 87.071 77.188 87.1506V87.25C77.4996 87.2699 77.8128 87.3793 78.1277 87.5781C78.4425 87.777 78.706 88.062 78.9181 88.4332C79.1303 88.8045 79.2363 89.2585 79.2363 89.7955C79.2363 90.3059 79.1203 90.7649 78.8883 91.1726C78.6563 91.5803 78.2901 91.9034 77.7896 92.142C77.2891 92.3807 76.6378 92.5 75.8358 92.5H72.1568ZM73.3897 91.4062H75.8358C76.6412 91.4062 77.2129 91.2505 77.551 90.9389C77.8923 90.6241 78.063 90.2429 78.063 89.7955C78.063 89.4508 77.9752 89.1326 77.7995 88.8409C77.6239 88.5459 77.3736 88.3106 77.0488 88.1349C76.724 87.956 76.3395 87.8665 75.8954 87.8665H73.3897V91.4062ZM73.3897 86.7926H75.6767C76.0479 86.7926 76.3826 86.7197 76.6809 86.5739C76.9825 86.428 77.2212 86.2225 77.3968 85.9574C77.5758 85.6922 77.6653 85.3807 77.6653 85.0227C77.6653 84.5753 77.5095 84.1958 77.198 83.8842C76.8864 83.5694 76.3926 83.4119 75.7164 83.4119H73.3897V86.7926ZM81.1032 92.5V84.8636H82.2367V86.017H82.3162C82.4554 85.6392 82.7073 85.3326 83.0719 85.0973C83.4365 84.862 83.8475 84.7443 84.3049 84.7443C84.391 84.7443 84.4988 84.746 84.628 84.7493C84.7573 84.7526 84.8551 84.7576 84.9213 84.7642V85.9574C84.8816 85.9474 84.7904 85.9325 84.6479 85.9126C84.5087 85.8894 84.3612 85.8778 84.2054 85.8778C83.8342 85.8778 83.5028 85.9557 83.2111 86.1115C82.9228 86.264 82.6941 86.4761 82.525 86.7479C82.3593 87.0163 82.2765 87.3229 82.2765 87.6676V92.5H81.1032ZM88.5593 92.679C88.0754 92.679 87.6362 92.5878 87.2418 92.4055C86.8474 92.2199 86.5342 91.9531 86.3022 91.6051C86.0702 91.2538 85.9542 90.8295 85.9542 90.3324C85.9542 89.8949 86.0404 89.5402 86.2127 89.2685C86.3851 88.9934 86.6154 88.7779 86.9038 88.6222C87.1921 88.4664 87.5103 88.3504 87.8583 88.2741C88.2096 88.1946 88.5626 88.1316 88.9173 88.0852C89.3813 88.0256 89.7575 87.9808 90.0458 87.951C90.3375 87.9179 90.5496 87.8632 90.6822 87.7869C90.8181 87.7107 90.886 87.5781 90.886 87.3892V87.3494C90.886 86.8589 90.7518 86.4777 90.4833 86.206C90.2182 85.9342 89.8155 85.7983 89.2752 85.7983C88.7151 85.7983 88.2759 85.9209 87.9577 86.1662C87.6396 86.4115 87.4158 86.6733 87.2866 86.9517L86.1729 86.554C86.3718 86.09 86.637 85.7287 86.9684 85.4702C87.3031 85.2083 87.6677 85.026 88.0621 84.9233C88.4599 84.8172 88.851 84.7642 89.2354 84.7642C89.4807 84.7642 89.7624 84.794 90.0806 84.8537C90.4021 84.91 90.712 85.0277 91.0103 85.2067C91.3119 85.3857 91.5621 85.6558 91.761 86.017C91.9599 86.3783 92.0593 86.8622 92.0593 87.4688V92.5H90.886V91.4659H90.8263C90.7468 91.6316 90.6142 91.8089 90.4286 91.9979C90.243 92.1868 89.9961 92.3475 89.6879 92.4801C89.3796 92.6127 89.0034 92.679 88.5593 92.679ZM88.7383 91.625C89.2023 91.625 89.5934 91.5339 89.9116 91.3516C90.2331 91.1693 90.475 90.9339 90.6374 90.6456C90.8031 90.3572 90.886 90.054 90.886 89.7358V88.6619C90.8363 88.7216 90.7269 88.7763 90.5579 88.826C90.3922 88.8724 90.1999 88.9138 89.9812 88.9503C89.7657 88.9834 89.5553 89.0133 89.3498 89.0398C89.1476 89.063 88.9835 89.0829 88.8576 89.0994C88.5527 89.1392 88.2676 89.2038 88.0025 89.2933C87.7406 89.3795 87.5285 89.5104 87.3661 89.6861C87.207 89.8584 87.1275 90.0937 87.1275 90.392C87.1275 90.7997 87.2783 91.108 87.5799 91.3168C87.8848 91.5223 88.271 91.625 88.7383 91.625ZM95.3741 87.9062V92.5H94.2008V84.8636H95.3343V86.0568H95.4338C95.6127 85.669 95.8845 85.3575 96.2491 85.1222C96.6137 84.8835 97.0843 84.7642 97.661 84.7642C98.1781 84.7642 98.6305 84.8703 99.0183 85.0824C99.4061 85.2912 99.7077 85.6094 99.9231 86.0369C100.139 86.4612 100.246 86.9981 100.246 87.6477V92.5H99.073V87.7273C99.073 87.1274 98.9172 86.66 98.6056 86.3253C98.2941 85.9872 97.8665 85.8182 97.323 85.8182C96.9484 85.8182 96.6137 85.8994 96.3187 86.0618C96.027 86.2242 95.7967 86.4612 95.6277 86.7727C95.4586 87.0843 95.3741 87.4621 95.3741 87.9062ZM105.274 92.6591C104.637 92.6591 104.076 92.4983 103.588 92.1768C103.101 91.852 102.72 91.3946 102.445 90.8047C102.17 90.2114 102.032 89.5104 102.032 88.7017C102.032 87.8996 102.17 87.2036 102.445 86.6136C102.72 86.0237 103.103 85.5679 103.593 85.2464C104.084 84.925 104.651 84.7642 105.294 84.7642C105.791 84.7642 106.184 84.8471 106.472 85.0128C106.764 85.1752 106.986 85.3608 107.138 85.5696C107.294 85.7751 107.415 85.9441 107.501 86.0767H107.6V82.3182H108.774V92.5H107.64V91.3267H107.501C107.415 91.4659 107.292 91.6416 107.133 91.8537C106.974 92.0625 106.747 92.2498 106.452 92.4155C106.157 92.5779 105.764 92.6591 105.274 92.6591ZM105.433 91.6051C105.904 91.6051 106.301 91.4825 106.626 91.2372C106.951 90.9886 107.198 90.6456 107.367 90.2081C107.536 89.7673 107.62 89.2585 107.62 88.6818C107.62 88.1117 107.538 87.6129 107.372 87.1854C107.206 86.7545 106.961 86.4197 106.636 86.1811C106.311 85.9392 105.91 85.8182 105.433 85.8182C104.936 85.8182 104.521 85.9458 104.19 86.201C103.862 86.4529 103.615 86.7959 103.449 87.2301C103.287 87.661 103.206 88.1449 103.206 88.6818C103.206 89.2254 103.288 89.7192 103.454 90.1634C103.623 90.6042 103.872 90.9555 104.2 91.2173C104.531 91.4759 104.942 91.6051 105.433 91.6051ZM116.495 86.5739L115.441 86.8722C115.374 86.6965 115.277 86.5258 115.147 86.3601C115.021 86.1911 114.849 86.0518 114.63 85.9425C114.412 85.8331 114.132 85.7784 113.79 85.7784C113.323 85.7784 112.933 85.8861 112.622 86.1016C112.314 86.3137 112.159 86.5838 112.159 86.9119C112.159 87.2036 112.266 87.4339 112.478 87.603C112.69 87.772 113.021 87.9129 113.472 88.0256L114.605 88.304C115.288 88.4697 115.797 88.7232 116.132 89.0646C116.467 89.4027 116.634 89.8385 116.634 90.3722C116.634 90.8097 116.508 91.2008 116.256 91.5455C116.007 91.8902 115.659 92.1619 115.212 92.3608C114.765 92.5597 114.244 92.6591 113.651 92.6591C112.872 92.6591 112.227 92.4901 111.717 92.152C111.207 91.8139 110.883 91.3201 110.748 90.6705L111.861 90.392C111.967 90.803 112.168 91.1113 112.463 91.3168C112.761 91.5223 113.15 91.625 113.631 91.625C114.178 91.625 114.612 91.509 114.934 91.277C115.258 91.0417 115.421 90.7599 115.421 90.4318C115.421 90.1667 115.328 89.9446 115.142 89.7656C114.957 89.5833 114.672 89.4474 114.287 89.358L113.015 89.0597C112.315 88.8939 111.801 88.6371 111.473 88.2891C111.149 87.9377 110.986 87.4986 110.986 86.9716C110.986 86.5407 111.107 86.1596 111.349 85.8281C111.594 85.4967 111.927 85.2365 112.348 85.0476C112.773 84.8587 113.253 84.7642 113.79 84.7642C114.546 84.7642 115.139 84.9299 115.57 85.2614C116.004 85.5928 116.312 86.0303 116.495 86.5739Z" fill="white"/>
<g filter="url(#filter0_f_277_1273)">
<circle cx="3.5" cy="0.5" r="46" fill="white" fill-opacity="0.14"/>
</g>
<g filter="url(#filter1_f_277_1273)">
<circle cx="189.5" cy="130.5" r="46" fill="white" fill-opacity="0.14"/>
</g>
<circle cx="173.5" cy="14.5" r="5.5" stroke="white" stroke-opacity="0.2"/>
</g>
<rect x="0.5" y="0.5" width="187.25" height="130" rx="12" stroke="url(#paint0_linear_277_1273)"/>
<defs>
<filter id="filter0_f_277_1273" x="-142.5" y="-145.5" width="292" height="292" filterUnits="userSpaceOnUse" color-interpolation-filters="sRGB">
<feFlood flood-opacity="0" result="BackgroundImageFix"/>
<feBlend mode="normal" in="SourceGraphic" in2="BackgroundImageFix" result="shape"/>
<feGaussianBlur stdDeviation="50" result="effect1_foregroundBlur_277_1273"/>
</filter>
<filter id="filter1_f_277_1273" x="43.5" y="-15.5" width="292" height="292" filterUnits="userSpaceOnUse" color-interpolation-filters="sRGB">
<feFlood flood-opacity="0" result="BackgroundImageFix"/>
<feBlend mode="normal" in="SourceGraphic" in2="BackgroundImageFix" result="shape"/>
<feGaussianBlur stdDeviation="50" result="effect1_foregroundBlur_277_1273"/>
</filter>
<linearGradient id="paint0_linear_277_1273" x1="94.125" y1="0.5" x2="94.125" y2="130.5" gradientUnits="userSpaceOnUse">
<stop stop-color="white" stop-opacity="0.2"/>
<stop offset="1" stop-color="white" stop-opacity="0.1"/>
</linearGradient>
<clipPath id="clip0_277_1273">
<rect x="0.5" y="0.5" width="187.25" height="130" rx="12" fill="white"/>
</clipPath>
</defs>
</svg>
