<svg width="32" height="32" viewBox="0 0 32 32" fill="none" xmlns="http://www.w3.org/2000/svg">
<g>
<path d="M10.6667 11.9999H21.3333M10.6667 17.3333H18.6667M18.6667 23.9999H17.3333L10.6667 27.9999V23.9999H8C6.93913 23.9999 5.92172 23.5785 5.17157 22.8283C4.42143 22.0782 4 21.0608 4 19.9999V9.33325C4 8.27239 4.42143 7.25497 5.17157 6.50482C5.92172 5.75468 6.93913 5.33325 8 5.33325H24C25.0609 5.33325 26.0783 5.75468 26.8284 6.50482C27.5786 7.25497 28 8.27239 28 9.33325V15.3333M25.3333 29.3333V29.3466M25.3333 25.3333C25.9311 25.3313 26.5109 25.129 26.98 24.7585C27.4491 24.3881 27.7803 23.871 27.9207 23.29C28.0612 22.709 28.0026 22.0976 27.7544 21.5539C27.5063 21.0101 27.0829 20.5652 26.552 20.2906C26.0216 20.0189 25.4148 19.9346 24.8304 20.0515C24.246 20.1685 23.7184 20.4797 23.3333 20.9346" stroke="currentColor" stroke-width="2" stroke-linecap="round" stroke-linejoin="round"/>
</g>
</svg>
